<svg xmlns="http://www.w3.org/2000/svg" width="24" height="24" viewBox="0 0 24 24" fill="none" stroke="#7DB9DE" stroke-width="2" stroke-linecap="round" stroke-linejoin="round">
  <path d="M3 9c2.73 0 5.26.88 7.33 2.29 1.8 1.24 3.49 1.24 5.28 0C17.69 9.87 20.22 9 22.94 9"/>
  <path d="M3 5c2.73 0 5.26.88 7.33 2.29 1.8 1.24 3.49 1.24 5.28 0C17.69 5.87 20.22 5 22.94 5"/>
  <path d="M3 13c2.73 0 5.26.88 7.33 2.29 1.8 1.24 3.49 1.24 5.28 0"/>
  <path d="M3 17c2.73 0 5.26.88 7.33 2.29 1.8 1.24 3.49 1.24 5.28 0"/>
  <path d="M12 22c5.4-3.6 6.7-10.06 5-15l-1-2"/>
  <path d="M9 17c1.33.33 2.67.33 4 0"/>
</svg>